<?xml version="1.0" encoding="utf-8"?>
<!-- Generator: Adobe Illustrator 15.0.0, SVG Export Plug-In  -->
<!DOCTYPE svg PUBLIC "-//W3C//DTD SVG 1.1//EN" "http://www.w3.org/Graphics/SVG/1.1/DTD/svg11.dtd" [
	<!ENTITY ns_flows "http://ns.adobe.com/Flows/1.0/">
]>
<svg version="1.1"
	 xmlns="http://www.w3.org/2000/svg" xmlns:xlink="http://www.w3.org/1999/xlink" xmlns:a="http://ns.adobe.com/AdobeSVGViewerExtensions/3.0/"
	 x="0px" y="0px" width="383px" height="37px" viewBox="-2.46 -2.046 383 37" enable-background="new -2.46 -2.046 383 37"
	 xml:space="preserve">
<defs>
</defs>
<path fill="#1E1E24" d="M75.495,16.396c0,5.481-4.445,9.905-9.914,9.905c-5.494,0-9.914-4.424-9.914-9.905
	c0-0.661,0.052-1.285,0.189-1.904h-6.673v13.176c0,2.83,2.292,5.131,5.132,5.131h22.54c2.826,0,5.132-2.298,5.132-5.131V14.492
	h-6.679C75.431,15.111,75.495,15.735,75.495,16.396 M76.854,0.01h-22.54c-2.84,0-5.132,2.281-5.132,5.117v5.545h8.291
	c1.813-2.532,4.764-4.191,8.107-4.191c3.337,0,6.312,1.659,8.101,4.191h8.305V5.127C81.987,2.291,79.681,0.01,76.854,0.01
	 M79.369,6.325c0,0.519-0.423,0.927-0.913,0.927H75.7c-0.5,0-0.927-0.408-0.927-0.927V3.576c0-0.503,0.427-0.908,0.927-0.908h2.756
	c0.491,0,0.913,0.405,0.913,0.908V6.325z M71.676,16.396c0-3.375-2.719-6.112-6.095-6.112c-3.363,0-6.1,2.737-6.1,6.112
	c0,3.388,2.737,6.104,6.1,6.104C68.957,22.5,71.676,19.784,71.676,16.396"/>
<path fill="#1E1E24" d="M278.537,16.433c0,2.968-0.753,5.712-2.203,8.236c-1.479,2.498-3.452,4.499-5.976,5.947
	c-2.502,1.473-5.253,2.203-8.227,2.203c-1.582,0-3.145-0.231-4.653-0.676c0.825-1.341,1.403-2.505,1.673-3.509
	c0.115-0.477,0.505-1.982,1.135-4.502c0.296,0.562,0.812,1.028,1.564,1.431c0.758,0.413,1.569,0.623,2.422,0.623
	c1.74,0,3.268-0.495,4.625-1.474c1.354-0.972,2.408-2.313,3.134-4.018c0.747-1.698,1.112-3.627,1.112-5.766
	c0-1.614-0.427-3.141-1.266-4.557c-0.851-1.436-2.074-2.591-3.69-3.483c-1.605-0.907-3.426-1.349-5.443-1.349
	c-1.499,0-2.885,0.197-4.173,0.602c-1.298,0.411-2.415,0.962-3.305,1.666c-0.91,0.667-1.67,1.452-2.333,2.36
	c-0.645,0.866-1.118,1.812-1.417,2.767c-0.32,0.956-0.472,1.902-0.472,2.849c0,1.484,0.294,2.79,0.849,3.904
	c0.586,1.125,1.415,1.911,2.502,2.367c0.435,0.171,0.694,0.043,0.805-0.431c0.05-0.082,0.102-0.306,0.171-0.644
	c0.093-0.359,0.153-0.566,0.19-0.641c0.073-0.331,0-0.648-0.254-0.922c-0.72-0.872-1.072-1.951-1.072-3.232
	c0-2.149,0.739-3.991,2.222-5.543c1.487-1.546,3.441-2.312,5.854-2.312c2.139,0,3.822,0.571,5.004,1.748
	c1.225,1.164,1.826,2.686,1.826,4.556c0,2.42-0.48,4.478-1.463,6.172c-0.982,1.697-2.231,2.534-3.757,2.534
	c-0.87,0-1.567-0.31-2.097-0.925c-0.522-0.626-0.685-1.367-0.489-2.224c0.107-0.509,0.307-1.167,0.579-1.997
	c0.254-0.851,0.471-1.569,0.631-2.21c0.16-0.637,0.244-1.167,0.244-1.621c0-0.687-0.182-1.285-0.573-1.764
	c-0.392-0.459-0.929-0.698-1.649-0.698c-0.886,0-1.628,0.408-2.24,1.228c-0.612,0.806-0.913,1.805-0.913,3.007
	c0,1.061,0.186,1.918,0.523,2.616l-2.093,8.916c-0.268,0.993-0.351,2.278-0.283,3.783c-2.935-1.289-5.315-3.281-7.127-5.986
	c-1.794-2.712-2.701-5.712-2.701-9.029c0-2.978,0.726-5.734,2.195-8.24c1.467-2.505,3.453-4.507,5.971-5.978
	c2.519-1.453,5.257-2.188,8.232-2.188c2.974,0,5.725,0.736,8.227,2.188c2.523,1.47,4.497,3.472,5.976,5.978
	C277.784,10.699,278.537,13.455,278.537,16.433"/>
<path fill="#1E1E24" d="M197.619,27.869c-0.014-0.075-0.023-0.157-0.03-0.233C197.594,27.712,197.605,27.794,197.619,27.869
	 M205.15,18.127c2.947,0.08,4.926-2.979,4.409-6.83c-0.505-3.865-3.308-6.958-6.264-7.047c-2.939-0.096-4.919,2.858-4.409,6.73
	C199.4,14.83,202.192,18.039,205.15,18.127 M230.389,8.217V5.489c0-3.006-2.461-5.467-5.474-5.467h-21.852
	c-2.965,0-5.381,2.37-5.476,5.307c1.867-1.648,4.479-3.022,7.144-3.022h11.447l-2.561,2.167h-3.628
	c2.402,0.929,3.687,3.723,3.687,6.599c0,2.402-1.338,4.478-3.231,5.951c-1.849,1.435-2.192,2.036-2.192,3.264
	c0,1.047,1.976,2.823,3.006,3.549c3.034,2.135,3.998,4.111,3.998,7.417c0,0.52-0.055,1.046-0.187,1.57h9.845
	c3.013,0,5.474-2.459,5.474-5.472V10.269h-6.151v6.15h-2.047v-6.15h-6.142V8.217h6.142V2.072h2.047v6.145H230.389z M203.555,24.552
	c0.688,0,1.32-0.021,1.976-0.021c-0.872-0.836-1.558-1.872-1.558-3.15c0-0.758,0.237-1.48,0.575-2.132
	c-0.342,0.025-0.697,0.036-1.054,0.036c-2.385,0-4.417-0.769-5.908-2.043v2.155v6.461C199.298,25.036,201.326,24.552,203.555,24.552
	 M197.688,28.435c-0.014-0.171-0.052-0.352-0.065-0.525C197.636,28.083,197.674,28.264,197.688,28.435 M212.173,30.538
	c-0.485-1.886-2.185-2.812-4.565-4.467c-0.871-0.285-1.819-0.452-2.858-0.462c-2.859-0.025-5.536,1.128-7.062,2.829
	c0.528,2.502,2.735,4.385,5.376,4.385h9.174c0.052-0.371,0.082-0.728,0.082-1.109C212.32,31.317,212.266,30.922,212.173,30.538"/>
<path fill-rule="evenodd" clip-rule="evenodd" fill="#1E1E24" d="M167.146,14.443v-0.077c-0.017,0.025-0.038,0.053-0.052,0.077
	H167.146z M178.049,0.025H151.51c-1.742,0-3.132,1.396-3.132,3.111v26.565c0,1.723,1.39,3.12,3.132,3.12h26.539
	c1.729,0,3.134-1.397,3.134-3.12V3.136C181.183,1.421,179.779,0.025,178.049,0.025 M156.732,6.253c1.414,0,2.303,1.042,2.316,2.384
	c0,1.318-0.902,2.379-2.344,2.379h-0.02c-1.402,0-2.303-1.061-2.303-2.379C154.382,7.295,155.304,6.253,156.732,6.253
	 M159.308,26.604h-4.684V12.496h4.684V26.604z M176.485,26.604h-4.632v-7.358c0-1.868-0.521-3.127-2.2-3.127
	c-1.279,0-2.026,0.854-2.368,1.666c-0.11,0.303-0.139,0.717-0.139,1.136v7.684h-4.78c0,0,0.061-12.881,0-14.165h4.78v1.926
	c0.632-0.944,1.723-2.258,4.156-2.258c3.045,0,5.183,2.36,5.183,6.609V26.604z"/>
<path fill="#1E1E24" d="M125.919,0h-21.848c-3.015,0-5.476,2.464-5.476,5.47v21.867c0,3.008,2.461,5.471,5.476,5.471h21.848
	c3.03,0,5.481-2.463,5.481-5.471V5.47C131.401,2.464,128.95,0,125.919,0"/>
<path fill="#FFFFFF" d="M112.785,15.527c0,0,2.441-0.196,2.441-3.184c0-2.979-2.007-4.444-4.525-4.444h-8.341v16.696h8.341
	c0,0,5.086,0.169,5.086-4.924C115.787,19.671,115.994,15.527,112.785,15.527 M106.028,10.868h4.673c0,0,1.128,0,1.128,1.746
	c0,1.728-0.665,1.982-1.423,1.982h-4.378V10.868z M110.45,21.622h-4.422v-4.458h4.673c0,0,1.679-0.025,1.679,2.291
	C112.379,21.41,111.116,21.606,110.45,21.622 M122.56,12.156c-6.146,0-6.146,6.402-6.146,6.402s-0.421,6.383,6.146,6.383
	c0,0,5.488,0.327,5.488-4.439h-2.824c0,0,0.1,1.798-2.568,1.798c0,0-2.82,0.195-2.82-2.904h8.296
	C128.131,19.398,129.049,12.156,122.56,12.156 M125.067,17.166h-5.258c0,0,0.343-2.57,2.825-2.57
	C125.103,14.596,125.067,17.166,125.067,17.166 M125.729,8.887h-6.616v2.059h6.616V8.887L125.729,8.887z"/>
<path fill="#1E1E24" d="M28.695,0.024H4.093C1.851,0.024,0,1.868,0,4.126V28.73c0,2.26,1.851,4.088,4.093,4.088h12.443V21.059
	h-3.922v-5.111h3.922v-2.57c0-3.959,2.933-7.051,6.666-7.051h3.613v5.776h-3.235c-0.854,0-1.11,0.486-1.11,1.164v2.68h4.346v5.111
	h-4.346v11.763h6.225c2.253,0,4.109-1.831,4.109-4.088V4.126C32.804,1.868,30.946,0.024,28.695,0.024"/>
<path fill="#1E1E24" d="M323.82,0.009h-21.846c-3.015,0-5.478,2.452-5.478,5.463v21.867c0,3.007,2.463,5.459,5.478,5.459h21.846
	c3.028,0,5.48-2.452,5.48-5.459V5.472C329.3,2.461,326.848,0.009,323.82,0.009 M319.926,26.421c-0.969,0.449-1.83,0.776-2.631,0.961
	c-0.775,0.182-1.614,0.271-2.532,0.271c-1.037,0-1.637-0.135-2.433-0.395c-0.801-0.252-1.491-0.63-2.032-1.114
	c-0.575-0.48-0.965-1.004-1.165-1.545c-0.221-0.541-0.331-1.327-0.331-2.374v-7.926h-3.088v-3.21
	c0.894-0.292,1.922-0.698,2.552-1.249c0.651-0.538,1.153-1.178,1.541-1.937c0.388-0.758,0.645-1.715,0.79-2.879h3.225v5.228h5.225
	v4.047h-5.225v5.794c0,1.306-0.028,2.072,0.114,2.449c0.137,0.37,0.484,0.751,0.854,0.972c0.515,0.306,1.075,0.445,1.716,0.445
	c1.153,0,2.289-0.363,3.421-1.107V26.421z"/>
<path fill="#1E1E24" d="M371.851,0.005h-21.846c-3.015,0-5.478,2.45-5.478,5.478v21.849c0,3.018,2.463,5.471,5.478,5.471h21.846
	c3.029,0,5.481-2.453,5.481-5.471V5.483C377.333,2.456,374.88,0.005,371.851,0.005 M371.364,10.957
	c0.007,0.235,0.018,0.474,0.018,0.705c0,7.239-5.406,15.614-15.332,15.614c-3.045,0-5.878-0.913-8.261-2.47
	c0.425,0.057,0.861,0.068,1.292,0.068c2.52,0,4.851-0.871,6.694-2.349c-2.351-0.038-4.354-1.618-5.036-3.798
	c0.338,0.068,0.658,0.096,1.021,0.096c0.491,0,0.967-0.067,1.398-0.194c-2.452-0.507-4.307-2.717-4.307-5.383v-0.057
	c0.725,0.418,1.56,0.647,2.442,0.694c-1.456-0.993-2.413-2.671-2.413-4.579c0-0.995,0.263-1.945,0.752-2.743
	c2.643,3.317,6.622,5.49,11.1,5.716c-0.106-0.402-0.143-0.819-0.143-1.242c0-3.025,2.413-5.481,5.387-5.481
	c1.55,0,2.943,0.656,3.935,1.719c1.238-0.226,2.38-0.708,3.417-1.324c-0.398,1.281-1.257,2.359-2.356,3.029
	c1.077-0.125,2.123-0.435,3.09-0.856C373.331,9.216,372.435,10.188,371.364,10.957"/>
</svg>
